# xmcd
#
# Track frame offsets:
#	150
#	20420
#	35376
#	52187
#	61234
#	78570
#	87588
#	99791
#	115231
#	129884
#	141583
#	158232
#	168465
#	179564
#	189298
#	204356
#	221372
#	231060
#	241508
#	253739
#	266180
#
# Disc length: 3732 seconds
#
# Revision: 1
# Processed by: cddbd v1.5.2PL0 Copyright (c) Steve Scherf et al.
# Submitted via: audiograbber 1.83.01
#
DISCID=220e9215
DTITLE=New City Promotions - New City Vol. 5
DYEAR=1900
DGENRE=
TTITLE0=Jeff Treece Band - The Eagle Song
TTITLE1=Naomi And The Segos - Homecoming Day
TTITLE2=John Lanier - The Promiced Land
TTITLE3=The Hendersons - I Won't Be Satisfied
TTITLE4=LuLu Roman - Heaven's Watching
TTITLE5=The Shadrix Trio - Living In Canaan's Land
TTITLE6=Barry Wayne - Stirring Up A Cloud Of Dust
TTITLE7=The Cunninghams - Power Of Love
TTITLE8=Chuck Day - Sounds Like Paradise
TTITLE9=Riversong - Raise Your Hand
TTITLE10=Livingstons - I'll Keep Holding Your Hand
TTITLE11=The Bartons - Would Someone Testify
TTITLE12=Autumn Brown - I Plead The Blood
TTITLE13=Southern Touch - Stand Your Ground
TTITLE14=Curtis Scott - He's Still Got Your Whole World
TTITLE15=Masters Quartet - Over The Moon
TTITLE16=Jeff Treece Band - Little Hope Baptist Church
TTITLE17=Jeff Treece Band - Lord Willing
TTITLE18=Jeff Treece Band - Good Book
TTITLE19=Jeff Treece Band  - Monkey Song
TTITLE20=Jeff Treece Band - Road Rage
EXTD=
EXTT0=
EXTT1=
EXTT2=
EXTT3=
EXTT4=
EXTT5=
EXTT6=
EXTT7=
EXTT8=
EXTT9=
EXTT10=
EXTT11=
EXTT12=
EXTT13=
EXTT14=
EXTT15=
EXTT16=
EXTT17=
EXTT18=
EXTT19=
EXTT20=
PLAYORDER=
